<svg width="75" height="75" viewBox="0 0 75 75" fill="none" xmlns="http://www.w3.org/2000/svg">
<circle cx="37.5" cy="37.5" r="37" fill="#CFC7A3" stroke="black"/>
<path d="M38.0021 17.1708C26.4979 17.1708 17.1708 26.4979 17.1708 38.0021C17.1708 48.3979 24.7875 57.0146 34.7479 58.5833V44.025H29.4563V38.0021H34.7479V33.4125C34.7479 28.1875 37.8583 25.3063 42.6146 25.3063C44.8938 25.3063 47.2813 25.7125 47.2813 25.7125V30.8354H44.6479C42.0646 30.8354 41.2563 32.4438 41.2563 34.0917V37.9979H47.0292L46.1063 44.0208H41.2563V58.5792C51.2167 57.0188 58.8333 48.4 58.8333 38.0021C58.8333 26.4979 49.5063 17.1708 38.0021 17.1708Z" fill="#F84200"/>
</svg>
