<svg width="75" height="75" viewBox="0 0 75 75" fill="none" xmlns="http://www.w3.org/2000/svg">
<circle cx="37.5" cy="37.5" r="37" fill="#CFC7A3" stroke="black"/>
<path d="M56.6396 30.3021C56.6186 28.7242 56.3232 27.162 55.7667 25.6854C55.2841 24.4399 54.547 23.3087 53.6024 22.3642C52.6579 21.4197 51.5268 20.6826 50.2813 20.2C48.8236 19.6528 47.2837 19.357 45.7271 19.325C43.7229 19.2354 43.0875 19.2104 38 19.2104C32.9125 19.2104 32.2604 19.2104 30.2708 19.325C28.7149 19.3572 27.1757 19.6531 25.7188 20.2C24.473 20.6823 23.3417 21.4193 22.3972 22.3638C21.4526 23.3084 20.7156 24.4397 20.2333 25.6854C19.6851 27.1419 19.3898 28.6815 19.3604 30.2375C19.2708 32.2438 19.2437 32.8792 19.2437 37.9667C19.2437 43.0542 19.2437 43.7042 19.3604 45.6958C19.3917 47.2542 19.6854 48.7917 20.2333 50.2521C20.7164 51.4974 21.4539 52.6283 22.3988 53.5724C23.3437 54.5166 24.4751 55.2533 25.7208 55.7354C27.1738 56.3046 28.7133 56.6216 30.2729 56.6729C32.2792 56.7625 32.9146 56.7896 38.0021 56.7896C43.0896 56.7896 43.7417 56.7896 45.7313 56.6729C47.2878 56.6423 48.8278 56.3471 50.2854 55.8C51.5306 55.3168 52.6615 54.5795 53.6059 53.6351C54.5504 52.6906 55.2877 51.5598 55.7708 50.3146C56.3188 48.8562 56.6125 47.3188 56.6438 45.7583C56.7333 43.7542 56.7604 43.1188 56.7604 38.0292C56.7563 32.9417 56.7563 32.2958 56.6396 30.3021ZM37.9875 47.5875C32.6667 47.5875 28.3562 43.2771 28.3562 37.9563C28.3562 32.6354 32.6667 28.325 37.9875 28.325C40.5419 28.325 42.9916 29.3397 44.7978 31.1459C46.604 32.9521 47.6188 35.4019 47.6188 37.9563C47.6188 40.5106 46.604 42.9604 44.7978 44.7666C42.9916 46.5728 40.5419 47.5875 37.9875 47.5875ZM48.0021 30.2146C47.7071 30.2149 47.4149 30.157 47.1423 30.0442C46.8697 29.9314 46.622 29.766 46.4134 29.5574C46.2048 29.3488 46.0394 29.1011 45.9266 28.8285C45.8139 28.5559 45.756 28.2638 45.7563 27.9688C45.7563 27.674 45.8143 27.3821 45.9271 27.1097C46.0399 26.8374 46.2053 26.5899 46.4137 26.3814C46.6222 26.173 46.8696 26.0076 47.142 25.8948C47.4144 25.782 47.7063 25.724 48.001 25.724C48.2958 25.724 48.5877 25.782 48.8601 25.8948C49.1324 26.0076 49.3799 26.173 49.5884 26.3814C49.7968 26.5899 49.9622 26.8374 50.075 27.1097C50.1878 27.3821 50.2458 27.674 50.2458 27.9688C50.2458 29.2104 49.2417 30.2146 48.0021 30.2146Z" fill="#F84200"/>
<path d="M37.9875 44.2125C41.4427 44.2125 44.2437 41.4115 44.2437 37.9563C44.2437 34.501 41.4427 31.7 37.9875 31.7C34.5323 31.7 31.7313 34.501 31.7313 37.9563C31.7313 41.4115 34.5323 44.2125 37.9875 44.2125Z" fill="#F84200"/>
</svg>
