<svg width="300" height="300" viewBox="0 0 300 300" fill="none" xmlns="http://www.w3.org/2000/svg">
<rect width="300" height="300" fill="black"/>
<path fill-rule="evenodd" clip-rule="evenodd" d="M165.414 73.1822C161.02 74.02 156.297 77.2747 150.346 83.5669C142.246 92.1319 135.616 101.738 124.194 121.465C117.035 133.826 108.687 149.437 99.2387 168.128C96.8742 172.805 94.4833 177.46 93.926 178.472C91.9478 182.062 91.9679 182.006 92.4574 182.51C93.3926 183.474 97.908 183.643 100.742 182.821C102.343 182.357 103.206 181.499 104.837 178.75C108.884 171.928 115.021 163.733 120.917 157.276C128.192 149.31 133.296 145.429 136.943 145.088C139.188 144.879 139.682 145.748 139.071 148.838C138.154 153.483 133.164 163.893 127.778 172.397C124.843 177.03 124.879 177.593 128.089 177.378C132.797 177.063 135.499 174.679 141.305 165.714C151.438 150.066 155.533 135.7 150.782 132.463C147.967 130.544 142.931 132.182 134.948 137.615C130.751 140.471 129.823 141.204 127.024 143.877C124.433 146.351 123.421 147.095 122.646 147.095C121.84 147.095 121.49 146.445 121.685 145.31C122.412 141.089 130.331 125.015 137.864 112.472C145.919 99.0606 152.403 90.5026 156.215 88.2506C157.708 87.3689 159.29 87.2896 159.821 88.0702C160.308 88.7862 160.263 90.8743 159.721 92.6809C158.78 95.8199 154.88 102.848 151.339 107.787C148.958 111.109 142.537 117.644 139.031 120.315C136.102 122.547 135.472 123.367 136.151 124.066C136.737 124.668 139.575 124.546 141.42 123.838C149.524 120.731 163.196 106.006 168.773 94.3803C172.819 85.9435 173.854 76.9207 171.077 74.2954C169.845 73.1314 167.794 72.7282 165.414 73.1822ZM257.816 106.193C257.202 106.301 256.198 106.446 255.584 106.516C254.97 106.585 253.112 106.905 251.455 107.225C249.798 107.547 248.184 107.838 247.869 107.874C247.554 107.909 247.17 108.018 247.016 108.116C246.862 108.214 246.016 108.479 245.134 108.705C244.253 108.931 243.242 109.234 242.887 109.378C242.532 109.522 242.193 109.589 242.133 109.527C242.073 109.465 241.73 109.571 241.37 109.763C241.011 109.955 240.446 110.148 240.115 110.194C239.785 110.239 239.062 110.49 238.51 110.751C237.957 111.012 237.335 111.228 237.127 111.23C236.919 111.233 235.977 111.598 235.032 112.041C234.088 112.484 233.072 112.892 232.774 112.948C232.113 113.071 221.811 118.122 221.439 118.505C221.293 118.656 220.266 119.248 219.156 119.822C218.046 120.396 216.993 121.015 216.816 121.198C216.639 121.381 215.998 121.8 215.393 122.13C214.788 122.46 214.042 122.919 213.735 123.151C213.428 123.382 212.424 124.08 211.503 124.702C210.583 125.323 209.779 125.894 209.718 125.97C209.656 126.046 209.166 126.408 208.628 126.775C208.089 127.141 207.431 127.596 207.165 127.786C206.514 128.249 205.581 129.165 205.759 129.165C206.074 129.165 207.039 128.62 207.039 128.441C207.039 128.337 207.768 127.875 208.658 127.416C209.547 126.956 210.311 126.484 210.354 126.366C210.397 126.248 211.45 125.634 212.693 125.001C213.936 124.368 215.009 123.758 215.076 123.645C215.271 123.321 222.774 119.633 225.118 118.708C230.053 116.762 233.989 115.308 235.119 115.013C235.327 114.959 236.451 114.646 237.617 114.318C241.128 113.33 244.654 112.556 246.858 112.289C247.441 112.218 248.002 112.107 248.105 112.042C248.485 111.8 252.353 111.581 256.142 111.586C260.429 111.592 261.761 111.725 265.169 112.492C268.13 113.158 271.511 115.038 273.452 117.098C274.575 118.29 274.945 118.899 275.632 120.688C276.532 123.029 276.675 123.736 276.677 125.832C276.679 128.492 276.182 130.89 275.056 133.648C274.532 134.933 271.45 140.419 270.896 141.055C270.699 141.28 270.086 142.079 269.534 142.83C268.484 144.257 266.606 146.397 265.319 147.634C264.904 148.033 263.882 149.048 263.047 149.89C262.212 150.733 261.347 151.531 261.123 151.665C260.783 151.869 260.776 151.909 261.076 151.915C261.273 151.919 261.692 151.689 262.009 151.405C262.325 151.12 263.066 150.525 263.655 150.083C264.782 149.237 265.219 148.883 266.072 148.129C266.358 147.876 267.078 147.256 267.672 146.75C269.092 145.543 275.201 139.28 274.963 139.276C274.862 139.274 274.89 139.196 275.026 139.103C275.376 138.864 277.407 136.311 277.904 135.486C278.132 135.107 278.445 134.687 278.6 134.552C279.176 134.05 282.671 127.556 282.366 127.556C282.3 127.556 282.447 127.151 282.692 126.656C283.094 125.847 283.457 124.575 283.75 122.959C283.807 122.643 283.906 121.442 283.97 120.292C284.092 118.103 283.889 117.222 282.507 113.936C281.202 110.83 275.992 107.552 270.929 106.651C270.162 106.514 269.258 106.342 268.92 106.267C267.9 106.041 259.013 105.982 257.816 106.193ZM105.204 126.177C102.551 126.527 100.897 127.462 99.5179 129.391L98.5771 130.707L94.7221 130.836C87.3049 131.085 81.6416 132.83 76.2941 136.514C71.4064 139.881 69.1657 144.354 70.3353 148.41C70.8383 150.154 72.4112 152.177 74.6324 153.934C77.3007 156.046 79.399 158.247 80.0531 159.622C80.4948 160.551 80.6 161.125 80.6 162.611C80.6 164.177 80.5033 164.652 79.9491 165.815C78.5673 168.713 74.707 171.899 69.2171 174.672C64.7257 176.94 59.9851 178.357 56.8838 178.357C54.4552 178.357 53.5622 179.029 54.2287 180.357C54.9456 181.785 56.0984 182.357 59.0387 182.746C61.4475 183.064 65.8096 182.756 69.2581 182.026C77.1121 180.362 85.7174 175.423 89.6726 170.311C92.5661 166.571 93.3537 161.965 91.6849 158.546C90.7196 156.567 88.995 154.414 87.3366 153.117C84.9005 151.21 82.7545 148.936 82.1027 147.569C80.8741 144.993 81.5608 141.668 83.6939 139.868C85.7156 138.162 89.4728 136.751 91.9951 136.751C94.1664 136.751 94.4838 137.409 93.657 140.199C92.9848 142.467 92.8627 144.273 93.3071 145.373C94.4713 148.255 96.78 149.798 98.6124 148.917C98.9588 148.751 99.5715 147.726 100.501 145.757C101.258 144.154 102.449 141.911 103.148 140.773C104.73 138.196 108.926 132.431 111.054 129.909C112.822 127.814 112.91 127.377 111.692 126.729C111.134 126.431 107.546 125.894 106.714 125.983C106.591 125.996 105.912 126.084 105.204 126.177ZM240.356 129.162C238.144 129.647 236.148 130.959 234.901 132.748C234.404 133.46 233.686 134.049 232.501 134.716C230.096 136.069 225.813 138.85 223.333 140.669C222.166 141.524 220.834 142.409 220.371 142.635C219.589 143.018 219.503 143.02 219.161 142.667C218.595 142.085 219.041 140.929 221.005 137.886C223.766 133.606 224.457 131.909 223.701 131.263C222.728 130.431 219.053 130.529 216.493 131.456C214.917 132.026 214.019 132.749 212.314 134.817C206.802 141.506 190.704 171.133 189.953 175.972C189.74 177.343 190.316 177.758 192.577 177.864C195.636 178.007 198.323 177.206 199.762 175.72C200.143 175.327 201.183 173.702 202.072 172.109C204.048 168.571 208.077 162.304 209.877 159.967C213.041 155.863 217.91 150.933 220.671 149.039C222.414 147.843 223.702 147.248 225.39 146.859C227.901 146.281 228.452 147.003 227.439 149.552C226.214 152.635 226.757 156.642 228.668 158.611C229.574 159.546 230.948 159.962 231.518 159.475C231.704 159.315 232.763 157.318 233.871 155.036C237.383 147.803 241.422 140.823 245.494 134.949C247.864 131.53 248.115 131.044 247.836 130.413C247.445 129.529 246.196 129.117 243.643 129.033C242.354 128.99 240.875 129.049 240.356 129.162ZM188.107 130.107C182.487 130.599 176.065 132.79 170.994 135.943C165.179 139.559 159.458 145.533 154.858 152.791C150.274 160.026 147.938 166.951 148.162 172.641C148.247 174.77 148.344 175.261 148.913 176.434C149.658 177.97 150.548 178.692 151.967 178.911C153.244 179.108 155.855 178.709 157.768 178.023C160.631 176.998 165.411 173.757 169.329 170.185C171.722 168.003 173.219 166.863 173.692 166.863C174.224 166.863 174.332 167.423 174.337 170.196C174.341 172.816 174.375 173.016 175 174.179C175.447 175.01 175.963 175.587 176.608 175.976C177.702 176.637 179.848 176.962 180.34 176.542C180.513 176.394 180.78 175.578 180.934 174.728C181.839 169.717 186.485 159.622 192.277 150.083C193.697 147.744 194.863 145.579 194.867 145.273C194.893 143.555 189.681 143.004 186.177 144.354C184.48 145.008 184.015 145.459 182.698 147.729C178.794 154.459 174.367 159.696 170.131 162.596C167.853 164.155 166.295 164.794 164.775 164.794C162.744 164.794 162.067 163.5 162.417 160.287C162.933 155.549 165.243 151.16 169.764 146.327C172.575 143.322 175.201 141.238 177.913 139.859C180.91 138.336 182.732 137.875 186.322 137.733C191.067 137.545 194.271 138.193 196.661 139.824C197.275 140.243 198.151 140.712 198.608 140.868C200.389 141.472 201.393 140.056 201.154 137.274C200.958 134.988 199.967 133.39 197.841 131.927C195.404 130.252 192.548 129.717 188.107 130.107ZM64.9764 135.197C64.7309 135.346 64.3994 135.49 64.2398 135.516C64.0803 135.543 63.8088 135.685 63.6363 135.832C63.464 135.979 62.9917 136.282 62.5873 136.505C61.1758 137.282 60.7245 137.559 60.0286 138.072C59.6429 138.357 59.2561 138.59 59.1689 138.59C59.0814 138.59 58.531 138.952 57.9458 139.394C57.3605 139.837 56.7945 140.2 56.6883 140.201C56.582 140.202 55.9928 140.615 55.379 141.118C54.7652 141.621 54.1713 142.034 54.0593 142.035C53.9472 142.037 53.1219 142.663 52.2253 143.427C51.3285 144.191 50.3275 144.959 50.0007 145.133C48.7852 145.782 41.4354 152.385 38.1417 155.786C36.2671 157.721 34.7336 159.377 34.7338 159.464C34.7338 159.551 34.441 159.933 34.083 160.312C32.5405 161.946 28.2609 167.181 28.2609 167.435C28.2609 167.526 27.9344 168.026 27.5356 168.545C27.1367 169.064 26.81 169.544 26.8095 169.612C26.8084 169.792 25.5023 171.561 25.3036 171.652C25.2117 171.694 25.1362 171.855 25.1362 172.008C25.1362 172.162 25.0108 172.418 24.8572 172.575C24.7039 172.734 24.5749 172.935 24.5709 173.024C24.5669 173.112 24.2852 173.631 23.945 174.176C22.9931 175.703 20.4096 180.602 20.2851 181.115C20.2463 181.275 19.8758 182.247 19.5405 183.069C19.3856 183.448 19.2421 183.81 19.2216 183.873C19.201 183.937 19.0642 184.287 18.9178 184.652C18.7714 185.017 18.6194 185.482 18.5801 185.686C18.5408 185.89 18.3944 186.344 18.2547 186.695C18.115 187.046 17.9561 187.563 17.9016 187.845C17.8469 188.126 17.628 189.183 17.4148 190.195C17.0035 192.147 16.8615 196.757 17.1566 198.585C17.4664 200.505 18.09 201.91 19.4399 203.729C21.158 206.045 21.0739 205.953 22.1231 206.644C24.9927 208.532 26.9164 209.005 31.832 209.026C35.6047 209.043 36.5655 208.963 38.7799 208.447C39.3481 208.315 40.001 208.17 40.2306 208.126C40.4603 208.081 40.6482 208.029 40.6482 208.01C40.6482 207.991 40.8993 207.929 41.2062 207.873C41.5131 207.818 42.3166 207.6 42.9918 207.39C44.5282 206.912 44.3831 206.96 44.7773 206.795C44.9614 206.718 45.6355 206.501 46.2752 206.313C46.9148 206.125 47.8188 205.798 48.2839 205.588C48.749 205.377 49.3305 205.118 49.576 205.012C49.8215 204.906 51.4285 204.121 53.1471 203.266C54.8657 202.411 56.322 201.706 56.3834 201.699C56.4448 201.693 56.7963 201.477 57.1646 201.22C57.5329 200.962 58.1105 200.609 58.4479 200.434C58.7854 200.259 59.0617 200.018 59.0617 199.897C59.0617 199.777 58.8975 199.818 58.6966 199.99C58.4959 200.162 58.2196 200.309 58.0828 200.318C57.9462 200.327 57.5831 200.447 57.2762 200.585C54.7751 201.707 51.0051 203.132 50.134 203.285C50.0726 203.295 49.9197 203.372 49.7945 203.454C49.6691 203.537 49.1189 203.673 48.5716 203.757C48.0243 203.841 47.5244 203.943 47.4603 203.983C47.3965 204.023 46.9693 204.117 46.5113 204.192C46.0531 204.267 45.1994 204.445 44.6142 204.587C43.2971 204.909 37.9589 205.045 36.8088 204.787C36.3426 204.682 35.5982 204.54 35.1545 204.47C34.711 204.401 34.0834 204.238 33.7596 204.108C33.4359 203.978 32.8949 203.761 32.5574 203.626C32.22 203.49 31.9436 203.413 31.9436 203.453C31.9436 203.493 31.6269 203.293 31.2397 203.009C30.8524 202.725 30.469 202.493 30.3878 202.493C29.6418 202.493 26.312 198.452 25.7275 196.838C25.5491 196.345 25.3266 195.735 25.2331 195.482C25.0005 194.852 25.0195 194.94 24.8121 193.528C24.6122 192.164 24.6081 188.934 24.805 187.723C25.2472 185.004 25.4605 184.032 25.9779 182.389C26.2979 181.372 26.5745 180.489 26.5921 180.425C26.6285 180.296 27.0838 179.113 27.2996 178.586C27.3775 178.397 27.4586 178.19 27.4798 178.127C27.8308 177.08 29.6197 173.335 30.6089 171.576C31.0355 170.817 31.4517 170.041 31.5339 169.852C31.6158 169.662 31.9677 169.13 32.3155 168.669C32.6634 168.208 32.948 167.758 32.948 167.668C32.948 167.578 33.1739 167.218 33.4502 166.868C33.7265 166.518 34.1533 165.887 34.3988 165.467C34.6443 165.046 34.9559 164.514 35.0911 164.284C35.4402 163.691 36.9838 161.633 37.5793 160.968C37.8556 160.659 38.0815 160.349 38.0815 160.279C38.0815 160.208 39.0515 158.998 40.2371 157.588C44.6516 152.339 53.6383 143.614 56.6066 141.694C57.159 141.337 58.2544 140.483 59.0408 139.798C59.8271 139.112 60.7172 138.454 61.0185 138.337C61.3198 138.218 62.0934 137.658 62.7375 137.092C63.3817 136.525 64.0559 136.061 64.236 136.061C64.4164 136.061 64.7996 135.803 65.088 135.486C65.6667 134.852 65.6435 134.792 64.9764 135.197ZM253.017 147.217C253.017 147.284 253.168 147.711 253.352 148.165C253.536 148.619 253.69 149.21 253.695 149.479C253.699 149.748 254.007 150.744 254.378 151.692C255.333 154.127 255.493 156.545 254.797 158.026C253.929 159.873 252.151 161.366 248.929 162.952C247.847 163.484 247.01 163.97 247.069 164.031C247.128 164.092 247.411 164.012 247.697 163.853C247.984 163.695 248.57 163.49 249 163.399C249.43 163.308 250.283 163.027 250.897 162.773C252.785 161.995 253.708 161.753 254.778 161.756C256.079 161.759 257.546 162.36 258.076 163.106C258.302 163.423 258.651 163.885 258.854 164.132C259.056 164.379 259.444 165.146 259.717 165.837C259.989 166.528 260.289 167.093 260.384 167.093C260.478 167.093 260.881 167.925 261.279 168.941C261.677 169.957 262.05 170.74 262.108 170.68C262.166 170.621 261.798 169.464 261.29 168.111C260.782 166.757 260.327 165.379 260.279 165.05C260.231 164.72 260.097 163.895 259.982 163.217C259.485 160.296 260.954 157.853 264.228 156.15C264.875 155.813 265.674 155.306 266.003 155.022C266.332 154.739 267.066 154.276 267.633 153.993C268.2 153.71 268.625 153.438 268.577 153.388C268.529 153.339 267.494 153.779 266.277 154.368C263.472 155.725 261.838 156.239 260.341 156.236C258.784 156.234 257.294 155.428 256.567 154.196C256.272 153.695 255.868 153.083 255.67 152.834C255.472 152.586 254.869 151.195 254.331 149.743C253.793 148.291 253.277 147.101 253.185 147.099C253.093 147.097 253.017 147.15 253.017 147.217ZM86.2865 187.739L85.7334 188.2L85.6689 195.649C85.606 202.931 85.6151 203.111 86.0758 203.715L86.547 204.332H90.3962C94.7498 204.332 96.0765 204.064 97.3281 202.932C99.3179 201.133 99.1302 197.198 96.9925 195.897C96.3477 195.505 96.3463 195.499 96.7748 195.029C98.2533 193.409 98.2386 190.537 96.7434 188.962C95.5017 187.654 94.838 187.481 90.6388 187.375C87.0913 187.284 86.8028 187.308 86.2865 187.739ZM112.852 187.781C112.423 188.223 112.405 188.547 112.405 195.898C112.405 204.124 112.411 204.17 113.566 204.456C114.033 204.572 114.296 204.474 114.738 204.019C115.282 203.458 115.307 203.319 115.307 200.76V198.088L118.074 198.164C120.464 198.23 120.908 198.303 121.336 198.7C122.037 199.352 122.273 200.067 122.426 202.009C122.544 203.496 122.634 203.767 123.147 204.16C123.776 204.642 124.416 204.571 125.014 203.955C125.465 203.491 125.46 200.888 125.006 199.313C124.817 198.656 124.365 197.77 124.001 197.344L123.341 196.569L123.92 196.178C124.239 195.963 124.754 195.216 125.065 194.516C125.755 192.964 125.667 191.481 124.794 189.947C123.65 187.937 121.737 187.321 116.635 187.321C113.595 187.321 113.258 187.362 112.852 187.781ZM144.696 187.736C144.033 188.491 138.27 202.792 138.403 203.352C138.58 204.093 139.455 204.617 140.196 204.425C140.699 204.295 140.962 203.912 141.708 202.225L142.612 200.183L146.062 200.246L149.512 200.309L150.32 202.246C150.977 203.817 151.246 204.222 151.75 204.393C152.512 204.652 153.399 204.138 153.598 203.324C153.751 202.696 148.126 188.707 147.372 187.839C146.795 187.175 145.242 187.115 144.696 187.736ZM167.796 187.853C167.318 188.378 167.311 188.496 167.311 196.101C167.311 202.01 167.376 203.872 167.591 204.055C168.19 204.566 169 204.6 169.557 204.137L170.101 203.683L170.212 197.991L170.324 192.298L173.548 197.108C178.382 204.321 178.357 204.289 179.224 204.456C180.33 204.67 181.294 204.083 181.601 203.008C181.763 202.44 181.823 199.794 181.777 195.218C181.712 188.783 181.677 188.254 181.282 187.805C180.779 187.233 179.764 187.172 179.268 187.683C179.075 187.881 178.896 188.062 178.871 188.085C178.846 188.108 178.77 190.672 178.704 193.783L178.582 199.441L174.899 193.935C172.874 190.907 170.996 188.18 170.725 187.876C170.043 187.106 168.489 187.094 167.796 187.853ZM196.773 187.781C196.344 188.223 196.326 188.547 196.326 195.906C196.326 203.039 196.354 203.597 196.734 203.951C197.076 204.27 197.689 204.332 200.493 204.332C204.339 204.332 205.394 204.094 207.185 202.824C209.365 201.277 210.513 198.792 210.472 195.712C210.441 193.434 209.842 191.7 208.572 190.215C206.683 188.005 204.725 187.331 200.176 187.325C197.514 187.322 197.174 187.367 196.773 187.781ZM58.6153 190.024C58.6153 190.151 59.4128 191.325 60.3873 192.633C61.362 193.941 62.1182 195.054 62.0679 195.106C62.0175 195.158 62.1568 195.47 62.3773 195.801C63.2547 197.115 63.5386 198.629 63.2011 200.194C62.8239 201.944 61.468 203.76 58.7336 206.178C57.688 207.102 56.8787 207.906 56.9351 207.965C56.9918 208.023 57.3943 207.749 57.8297 207.355C58.2652 206.961 58.9392 206.47 59.328 206.262C59.7166 206.056 60.5277 205.485 61.1305 204.994C61.7334 204.503 62.3351 204.102 62.4679 204.102C62.6007 204.102 62.9011 203.923 63.1357 203.704C63.916 202.977 67.9801 203.165 67.9877 203.929C67.9886 204.024 68.1152 204.105 68.2685 204.11C68.6356 204.12 70.7129 206.321 72.3358 208.419C73.0477 209.339 73.6718 210.049 73.7225 209.997C73.7729 209.945 73.3073 209.213 72.6875 208.369C72.0677 207.526 71.5606 206.726 71.5606 206.591C71.5606 206.457 71.2227 205.868 70.8098 205.282C69.5563 203.504 69.2157 202.543 69.2305 200.827C69.2412 199.606 69.3479 199.131 69.7326 198.595C70.0016 198.22 70.2214 197.813 70.2214 197.69C70.2214 197.568 71.0249 196.631 72.007 195.611C72.989 194.59 73.7925 193.659 73.7925 193.543C73.7925 193.426 74.059 193.115 74.3847 192.852C74.7103 192.588 74.9362 192.331 74.8869 192.28C74.8373 192.229 73.893 192.952 72.7882 193.887C71.6834 194.822 70.6944 195.589 70.5906 195.592C70.4868 195.594 70.1103 195.811 69.7536 196.072C69.3972 196.334 69.1055 196.485 69.1055 196.409C69.1055 196.332 68.9062 196.38 68.6624 196.514C67.8098 196.984 66.5242 197.025 65.6203 196.61C65.1433 196.392 64.703 196.201 64.6416 196.186C64.2142 196.084 63.1627 195.137 62.444 194.207C61.149 192.532 58.6153 189.764 58.6153 190.024ZM93.8515 190.564C94.6364 190.846 94.996 191.369 94.996 192.23C94.996 193.821 94.2199 194.217 91.1013 194.217H88.7466V192.264V190.31H90.9452C92.1545 190.31 93.4622 190.424 93.8515 190.564ZM121.698 190.902C122.934 191.853 122.837 193.509 121.485 194.542C120.942 194.956 120.475 195.032 118.081 195.098L115.307 195.174V192.719V190.263L118.192 190.344C120.69 190.414 121.161 190.489 121.698 190.902ZM204.194 190.638C206.418 191.455 207.587 193.288 207.576 195.941C207.569 197.793 207.054 199.064 205.906 200.059C204.72 201.087 203.826 201.343 201.432 201.343H199.228V195.826V190.31L201.292 190.32C202.428 190.325 203.733 190.468 204.194 190.638ZM147.193 194.576L148.289 197.321L147.206 197.39C146.611 197.428 145.575 197.428 144.905 197.39L143.686 197.321L144.837 194.52C145.47 192.98 146.013 191.745 146.042 191.775C146.072 191.806 146.59 193.066 147.193 194.576ZM94.6505 197.531C95.9709 198.099 96.284 199.465 95.3506 200.583C94.817 201.223 94.7873 201.229 91.7795 201.304L88.7466 201.379V199.292V197.206H91.3204C93.035 197.206 94.1467 197.314 94.6505 197.531Z" fill="url(#paint0_linear_3_4)"/>
<defs>
<linearGradient id="paint0_linear_3_4" x1="150" y1="142" x2="118.4" y2="217.622" gradientUnits="userSpaceOnUse">
<stop stop-color="#FFD18A"/>
<stop offset="1" stop-color="#E620EA"/>
</linearGradient>
</defs>
</svg>
