<svg width="75" height="75" viewBox="0 0 75 75" fill="none" xmlns="http://www.w3.org/2000/svg">
<circle cx="37.5" cy="37.5" r="37" fill="#CFC7A3" stroke="black"/>
<path d="M53.8125 26.9375C51.7357 26.4808 49.857 25.378 48.446 23.7873C47.0349 22.1965 46.164 20.1997 45.9583 18.0833V17.1667H38.7708V45.6458C38.7723 46.9095 38.3761 48.1416 37.6384 49.1676C36.9007 50.1936 35.8589 50.9615 34.6605 51.3624C33.4622 51.7634 32.168 51.7772 30.9614 51.4018C29.7548 51.0264 28.6969 50.2809 27.9375 49.2708C27.2572 48.3767 26.8406 47.3101 26.7349 46.1917C26.6291 45.0732 26.8384 43.9474 27.3391 42.9417C27.8398 41.9359 28.6119 41.0903 29.5681 40.5005C30.5244 39.9107 31.6265 39.6002 32.75 39.6042C33.3713 39.6006 33.9896 39.6919 34.5833 39.875V32.5833C33.8924 32.4978 33.1961 32.4629 32.5 32.4792C29.9361 32.5477 27.4477 33.3624 25.3398 34.8235C23.2318 36.2846 21.5956 38.3287 20.6316 40.7055C19.6676 43.0823 19.4177 45.6886 19.9123 48.2053C20.407 50.722 21.6248 53.0399 23.4167 54.875C25.2531 56.7421 27.6031 58.0211 30.1681 58.5496C32.7331 59.078 35.3973 58.832 37.8222 57.8429C40.2471 56.8537 42.3232 55.166 43.7867 52.9943C45.2502 50.8225 46.0351 48.2647 46.0417 45.6458V31.0625C48.9405 33.1332 52.4167 34.2409 55.9792 34.2292V27.1458C55.2794 27.1487 54.5812 27.0789 53.8958 26.9375H53.8125Z" fill="#EA3F20"/>
</svg>
