<svg width="75" height="75" viewBox="0 0 75 75" fill="none" xmlns="http://www.w3.org/2000/svg">
<circle cx="37.5" cy="37.5" r="37" fill="#CFC7A3" stroke="black"/>
<path d="M53.9021 29.6604C53.9292 30.025 53.9292 30.3875 53.9292 30.75C53.9292 41.8438 45.4854 54.6271 30.0542 54.6271C25.3 54.6271 20.8833 53.25 17.1667 50.8583C17.8417 50.9354 18.4917 50.9625 19.1937 50.9625C22.9708 50.9716 26.6409 49.7086 29.6125 47.3771C27.8613 47.3454 26.1637 46.7676 24.7567 45.7245C23.3498 44.6813 22.3037 43.2248 21.7646 41.5583C22.2833 41.6354 22.8042 41.6875 23.35 41.6875C24.1021 41.6875 24.8583 41.5833 25.5604 41.4021C23.6599 41.0184 21.951 39.9882 20.7242 38.4869C19.4974 36.9855 18.8285 35.1055 18.8312 33.1667V33.0625C19.95 33.6854 21.2479 34.075 22.6229 34.1271C21.471 33.3616 20.5265 32.323 19.8736 31.1037C19.2207 29.8845 18.8798 28.5226 18.8812 27.1396C18.8812 25.5813 19.2958 24.1521 20.0229 22.9063C22.1315 25.5001 24.7615 27.622 27.7424 29.1347C30.7233 30.6474 33.9887 31.5171 37.3271 31.6875C37.1979 31.0625 37.1187 30.4146 37.1187 29.7646C37.1182 28.6624 37.3349 27.571 37.7564 26.5526C38.1779 25.5342 38.796 24.6089 39.5754 23.8296C40.3547 23.0502 41.28 22.4321 42.2984 22.0106C43.3168 21.5891 44.4082 21.3724 45.5104 21.3729C47.9271 21.3729 50.1083 22.3854 51.6417 24.0229C53.5203 23.6596 55.322 22.9738 56.9667 21.9958C56.3404 23.935 55.0287 25.5794 53.2771 26.6208C54.9433 26.4308 56.5717 25.9926 58.1083 25.3208C56.9607 26.994 55.5386 28.4611 53.9021 29.6604Z" fill="#EA3F20"/>
</svg>
