<svg width="43" height="40" viewBox="0 0 43 40" fill="none" xmlns="http://www.w3.org/2000/svg">
<g clip-path="url(#clip0_5_57)">
<mask id="mask0_5_57" style="mask-type:luminance" maskUnits="userSpaceOnUse" x="0" y="0" width="43" height="40">
<path d="M42.8235 0H0V40H42.8235V0Z" fill="white"/>
</mask>
<g mask="url(#mask0_5_57)">
<path fill-rule="evenodd" clip-rule="evenodd" d="M40.4556 20C41.2752 20 42.0692 19.8972 42.8235 19.7047C42.2238 19.5865 41.602 19.5244 40.9648 19.5244H30.3737C28.6243 19.5244 26.9919 19.0562 25.6125 18.2467C25.914 16.5979 26.7461 15.0173 28.1087 13.7446L34.8778 7.42188C35.4575 6.88048 35.9409 6.28338 36.3287 5.64904C35.815 5.96158 35.3283 6.32832 34.8778 6.74926L27.3886 13.7446C26.1517 14.9 24.643 15.647 23.0549 15.9857C22.0199 14.6207 21.4118 12.9534 21.4118 11.1535V2.21186C21.4118 1.44621 21.3017 0.70458 21.0956 0C20.9691 0.560142 20.9026 1.14093 20.9026 1.73624V11.6291C20.9026 13.2631 20.4014 14.7878 19.5347 16.0762C17.7696 15.7945 16.0774 15.0173 14.7148 13.7446L7.94578 7.42188C7.36616 6.88048 6.72691 6.42874 6.0478 6.06668C6.3824 6.5463 6.77502 7.00094 7.22568 7.42188L14.7148 14.4172C15.9517 15.5726 16.7515 16.9818 17.1141 18.4653C15.6527 19.4319 13.8678 20 11.9408 20H2.36799C1.5483 20 0.754313 20.1028 0 20.2954C0.599686 20.4134 1.22147 20.4756 1.8588 20.4756H12.45C14.1993 20.4756 15.8316 20.9438 17.211 21.7534C16.9094 23.402 16.0774 24.9826 14.7148 26.2554L7.94578 32.5782C7.36618 33.1196 6.88256 33.7166 6.49494 34.351C7.00841 34.0384 7.49512 33.6716 7.94578 33.2508L15.4349 26.2554C16.6718 25.1 18.1805 24.353 19.7687 24.0142C20.8036 25.3794 21.4118 27.0466 21.4118 28.8466V37.7882C21.4118 38.5538 21.5218 39.2954 21.728 40C21.8543 39.4398 21.9209 38.859 21.9209 38.2638V28.3708C21.9209 26.7368 22.4222 25.2122 23.2889 23.9238C25.0539 24.2054 26.7461 24.9826 28.1087 26.2554L34.8778 32.5782C35.4575 33.1196 36.0966 33.5712 36.7758 33.9334C36.4411 33.4536 36.0484 32.999 35.5979 32.5782L28.1087 25.5828C26.8718 24.4274 26.072 23.0182 25.7095 21.5348C27.1709 20.568 28.9558 20 30.8828 20H40.4556Z" fill="#95E990"/>
</g>
</g>
<defs>
<clipPath id="clip0_5_57">
<rect width="42.8235" height="40" fill="white"/>
</clipPath>
</defs>
</svg>
